PathFileType	4	(X/Y/Z)	C:\Git\research_data\Projects\squatting_fais\c3dfiles\036\SJ_pre2\markers_experimental.trc
DataRate	CameraRate	NumFrames	NumMarkers	Units	OrigDataRate	OrigDataStartFrame	OrigNumFrames
200.000000	200.000000	4	62	mm	200.000000	419	1677
Frame#	Time	FHD			LBHD			RBHD			C7			T10			CLAV			LSHO			LUUPA			LMUPA			LDUPA			LLEP			LMEP			LRAD			LUL			LRFIN			RSHO			RUPA1			RMUPA			RDUPA			RLEP			RMEP			RRAD			RUL			RUFIN			LASI			RASI			USACR			LSACR			RSACR			LTHI1			LTHI2			LTHI3			LTHI4			LLFC			LMFC			LTIB1			LTIB2			LTIB3			LTIB4			LLMAL			LMMAL			LHEE			LMT1			LMT2			LMT5			RTHI			RTHI2			RTHI3			RTHI4			RLFC			RMFC			RTIB1			RTIB2			RTIB3			RTIB4			RLMAL			RMMAL			RHEE			RMT1			RMT2			RMT5			*61			
		X1	Y1	Z1	X2	Y2	Z2	X3	Y3	Z3	X4	Y4	Z4	X5	Y5	Z5	X6	Y6	Z6	X7	Y7	Z7	X8	Y8	Z8	X9	Y9	Z9	X10	Y10	Z10	X11	Y11	Z11	X12	Y12	Z12	X13	Y13	Z13	X14	Y14	Z14	X15	Y15	Z15	X16	Y16	Z16	X17	Y17	Z17	X18	Y18	Z18	X19	Y19	Z19	X20	Y20	Z20	X21	Y21	Z21	X22	Y22	Z22	X23	Y23	Z23	X24	Y24	Z24	X25	Y25	Z25	X26	Y26	Z26	X27	Y27	Z27	X28	Y28	Z28	X29	Y29	Z29	X30	Y30	Z30	X31	Y31	Z31	X32	Y32	Z32	X33	Y33	Z33	X34	Y34	Z34	X35	Y35	Z35	X36	Y36	Z36	X37	Y37	Z37	X38	Y38	Z38	X39	Y39	Z39	X40	Y40	Z40	X41	Y41	Z41	X42	Y42	Z42	X43	Y43	Z43	X44	Y44	Z44	X45	Y45	Z45	X46	Y46	Z46	X47	Y47	Z47	X48	Y48	Z48	X49	Y49	Z49	X50	Y50	Z50	X51	Y51	Z51	X52	Y52	Z52	X53	Y53	Z53	X54	Y54	Z54	X55	Y55	Z55	X56	Y56	Z56	X57	Y57	Z57	X58	Y58	Z58	X59	Y59	Z59	X60	Y60	Z60	X61	Y61	Z61	X62	Y62	Z62	

420	2.095	-153.1521606445313	1473.842163085938	-937.769226074219	-321.8828735351563	1421.448120117188	-993.8321533203127	-265.9646911621094	1436.16455078125	-853.0487060546877	-352.9395446777344	1333.483642578125	-951.3093872070315	-453.7800292968751	1043.147216796875	-936.3259277343752	-225.6307373046876	1237.487548828125	-932.5728149414065	-254.5905914306641	1285.450317382813	-1079.971435546875	-336.9218750000001	1180.939208984375	-1211.521728515625	-316.4769897460938	1135.085205078125	-1211.316528320313	-365.0486450195313	1127.605102539063	-1247.444580078125	-384.9283142089845	1075.20068359375	-1262.538330078125	-444.028778076172	1084.949096679688	-1230.564086914063	-350.6266479492188	843.9023437500002	-1214.980224609375	-377.9038085937501	873.4454345703127	-1156.953491210938	-351.9478454589844	822.2747802734377	-1124.823974609375	-270.3975524902344	1290.613647460938	-786.2746582031252	-346.8319091796876	1195.154174804688	-669.3568725585939	-317.0327148437501	1156.078125	-665.2997436523439	-361.4541931152344	1138.65869140625	-630.2500000000001	-374.2286682128907	1071.164916992188	-605.9635009765626	-437.9815979003907	1059.353637695313	-646.8195190429689	-353.7360839843751	871.4793090820315	-715.4352416992189	-316.8704223632813	848.7506103515627	-664.9971313476564	-337.3138427734376	825.0776977539065	-753.6060180664064	-336.0926513671876	817.664001464844	-1058.370849609375	-339.8092956542969	824.246032714844	-799.442321777344	-495.4450683593751	962.3697509765627	-938.6038818359377	-520.8767700195314	940.0950927734377	-964.5339355468752	-518.1580200195314	943.5008544921877	-908.2314453125002	-418.1248474121095	717.5521240234376	-1154.328735351563	-363.4572143554688	655.7901611328126	-1160.939575195313	-322.7579956054688	674.5382690429689	-1146.880737304688	-371.1997375488282	597.4682006835939	-1161.64453125	-342.1656188964844	450.5945739746095	-1154.851928710938	-309.8626708984376	411.1403808593751	-1013.983337402344	-292.8059997558594	267.2609558105469	-1093.712768554688	-327.6990356445313	236.3810119628907	-1167.70849609375	-305.7916259765626	224.6332244873047	-1129.755737304688	-331.0282897949219	147.1923370361328	-1103.374267578125	-400.576141357422	81.44695281982423	-1162.009521484375	-382.5348510742188	84.71695709228517	-1078.466430664063	-455.2151184082032	56.31455612182619	-1127.623413085938	-267.5050659179688	55.32692337036134	-1092.584838867188	-253.3851013183594	56.47784805297853	-1140.346435546875	-292.6677246093751	34.70452499389649	-1189.8154296875	-447.8870544433595	651.2661743164064	-718.9438476562501	-391.038055419922	618.0805053710939	-704.8756103515626	-362.4480895996094	634.1485595703126	-703.4636230468751	-378.3476867675782	536.1682128906251	-713.6793823242189	-318.9408569335938	442.1134643554689	-710.4007568359376	-283.7471923828126	436.7993164062501	-850.4754638671877	-284.1406250000001	284.0966491699219	-742.4463500976564	-367.3227539062501	224.1434783935547	-693.2376708984376	-326.5675659179688	213.9993133544922	-713.6524047851564	-326.5843505859376	162.6209106445313	-744.2479248046876	-420.4201965332032	81.38632965087892	-719.9288330078126	-383.9486694335938	84.42864990234376	-795.548522949219	-462.5026245117189	53.29470825195314	-758.8945922851564	-265.7234191894532	55.02168655395509	-762.6520996093751	-268.5379028320313	60.84035491943361	-711.8610839843751	-308.7639770507813	36.08979797363282	-668.7409057617189	nan	nan	nan	
421	2.1	-152.1826324462891	1472.706176757813	-937.8487548828127	-320.9186401367188	1420.07373046875	-993.7823486328127	-265.0184326171876	1434.857177734375	-853.1419067382815	-352.0310058593751	1332.373413085938	-951.2105102539065	-453.6968078613282	1042.353637695313	-936.2608642578127	-224.9416656494141	1235.887451171875	-932.2559204101565	-253.8919677734376	1284.305419921875	-1079.874633789063	-336.3132934570313	1180.154174804688	-1211.570068359375	-316.0894775390626	1134.16259765625	-1211.191650390625	-364.5060424804688	1126.986572265625	-1247.568969726563	-384.4840087890626	1074.399658203125	-1262.719482421875	-443.6068420410157	1084.33935546875	-1230.749267578125	-350.8092041015626	843.2739257812502	-1214.794921875	-378.1070861816407	872.7471923828127	-1156.879638671875	-352.5356140136719	821.8316650390627	-1124.57666015625	-269.4782409667969	1289.161865234375	-786.1773681640627	-346.2055053710938	1194.07177734375	-669.1016845703126	-316.3220214843751	1154.914184570313	-665.2404785156251	-360.7597961425782	1137.541748046875	-630.0935668945314	-373.7743835449219	1070.093383789063	-605.6986083984376	-437.7796630859376	1058.625244140625	-646.4058837890626	-354.1747436523438	870.559509277344	-715.3171997070314	-317.5942382812501	847.6377563476565	-664.7619018554689	-337.6214904785157	824.5588378906252	-753.5119018554689	-336.5109863281251	816.656188964844	-1058.311401367188	-340.7033996582032	823.223815917969	-799.1897583007815	-495.6903381347657	961.7991943359377	-938.5703735351565	-521.1646118164064	939.6284790039065	-964.5032958984377	-518.5964355468751	943.0488281250002	-908.2100219726565	-418.7680053710939	717.0097045898439	-1154.409545898438	-363.4386596679688	655.4125976562501	-1161.291137695313	-323.0725708007813	674.2700805664064	-1146.99560546875	-371.4009399414063	597.0789794921876	-1161.6689453125	-341.8207702636719	450.3936157226564	-1155.110229492188	-309.1664733886719	410.9546203613282	-1014.220092773438	-292.4637451171876	267.0372009277344	-1093.862060546875	-327.4844360351563	236.2351379394532	-1167.85986328125	-305.6266784667969	224.5565185546876	-1129.805053710938	-330.9905700683594	147.1354522705078	-1103.362548828125	-400.495574951172	81.3790740966797	-1161.999145507813	-382.4649047851563	84.68275451660158	-1078.509155273438	-455.2187500000001	56.31080245971681	-1127.606079101563	-267.6363220214844	55.36522293090822	-1092.619995117188	-253.4880371093751	56.5660972595215	-1140.346435546875	-292.6390991210938	34.66317367553712	-1189.811279296875	-448.0974121093751	650.7536010742189	-718.8560180664064	-391.2131652832032	617.5362548828126	-704.6832275390626	-362.7433471679688	633.7722167968751	-703.2577514648439	-378.3479309082032	535.8049926757814	-713.5069580078126	-318.6423950195313	441.8888549804689	-710.0886230468751	-283.1912231445313	436.6740112304689	-850.0825195312502	-283.7453918457032	283.9335937500001	-742.1584472656251	-367.2055358886719	224.053451538086	-693.1113281250001	-326.3413391113282	213.8493194580079	-713.4776000976564	-326.5330505371094	162.5186309814453	-744.1562500000001	-420.3812866210939	81.37185668945314	-719.9189453125001	-383.9294128417969	84.39053344726564	-795.563415527344	-462.5005493164064	53.2903518676758	-758.9055175781251	-265.6726684570313	55.05472564697267	-762.5421142578126	-268.6337890625001	60.83522415161134	-711.8511352539064	-308.8386230468751	36.06376647949219	-668.7055664062501	nan	nan	nan	
422	2.105	-151.37841796875	1471.085327148438	-937.7840576171877	-319.8057250976563	1418.837768554688	-993.7578735351565	-263.9844055175782	1433.468505859375	-853.1566162109377	-351.0759277343751	1331.379150390625	-951.154479980469	-453.6654357910157	1041.559814453125	-936.1962890625002	-224.2029724121094	1234.597778320313	-932.2739868164065	-252.9873352050782	1282.9638671875	-1079.8349609375	-335.4545288085938	1179.034545898438	-1211.65380859375	-315.9034118652344	1133.015747070313	-1211.003540039063	-364.3195800781251	1126.310424804688	-1247.548706054688	-384.1752014160157	1073.69287109375	-1262.944213867188	-443.2465209960939	1083.664306640625	-1231.000732421875	-351.0812072753907	842.560241699219	-1214.647827148438	-378.6557312011719	872.2273559570315	-1156.821044921875	-353.2220764160157	821.2163085937502	-1124.13427734375	-268.4548950195313	1287.934326171875	-786.3169555664065	-345.2446899414063	1193.127685546875	-669.0401611328126	-315.6161193847657	1153.656982421875	-665.3292846679689	-360.0802001953126	1136.601806640625	-629.8804321289064	-373.2561950683594	1069.152954101563	-605.5465087890626	-437.2673950195314	1057.569580078125	-646.3433837890626	-354.8182373046876	869.5346679687502	-715.0108032226564	-318.1280212402344	846.5574340820315	-664.6393432617189	-338.3735046386719	823.5239868164065	-753.3253784179689	-337.1098022460938	815.656433105469	-1058.192016601563	-341.2619018554688	822.1721801757815	-799.1044921875002	-495.813201904297	961.168884277344	-938.621032714844	-521.4586181640626	938.9232177734377	-964.459899902344	-518.7793579101564	942.4548950195315	-908.1363525390627	-419.7198791503907	716.8529052734376	-1154.5576171875	-363.9876098632813	655.0145874023439	-1161.194213867188	-323.3373107910157	674.1057739257814	-1147.115844726563	-371.4260864257813	596.7027587890626	-1161.74560546875	-341.3476562500001	450.1396789550782	-1155.39111328125	-308.4984741210938	410.740692138672	-1014.462524414063	-292.2518920898438	266.8645324707032	-1094.091064453125	-326.6649475097657	236.1880035400391	-1168.263305664063	-305.1364746093751	224.4799804687501	-1129.938354492188	-330.8985595703126	146.9764862060547	-1103.30419921875	-400.5217285156251	81.42130279541017	-1162.02392578125	-382.4558715820313	84.67870330810548	-1078.588012695313	-455.2340393066407	56.31380844116212	-1127.57177734375	-267.6413269042969	55.45296478271486	-1092.654052734375	-253.4710998535157	56.68282318115236	-1140.470581054688	-292.7432861328126	34.69800186157227	-1189.8427734375	-448.4358520507814	649.9293212890626	-718.6650390625001	-391.7314453125001	616.8270874023439	-704.4572753906251	-363.1584472656251	633.2635498046876	-703.1510009765626	-378.2775268554688	535.2544555664064	-713.2561035156251	-318.4258728027344	441.652801513672	-709.7532958984376	-282.7491455078126	436.5375366210939	-849.6463623046877	-283.3868713378907	283.5598754882813	-742.0605468750001	-366.8996582031251	223.9225311279297	-693.0725708007814	-326.0218200683594	213.6028594970704	-713.4467773437501	-326.3971252441407	162.4075469970703	-744.0589599609376	-420.3563232421876	81.4057083129883	-719.9909057617189	-383.5050964355469	84.22817993164064	-795.5076904296877	-462.4941406250001	53.30698394775392	-758.9498291015626	-265.6932983398438	55.08010101318361	-762.5437622070314	-268.5940551757813	60.9012794494629	-711.7955932617189	-308.8525695800782	36.0465202331543	-668.6733398437501	nan	nan	nan	
423	2.11	-150.298583984375	1469.837036132813	-937.8093872070315	-318.8332824707032	1417.406005859375	-993.7515258789065	-263.0124511718751	1432.22265625	-853.1628417968752	-350.1845092773438	1330.150268554688	-951.059509277344	-453.6022949218751	1040.8310546875	-936.1611328125002	-222.9882354736329	1232.988403320313	-932.2874755859377	-252.0312957763672	1281.647583007813	-1079.6669921875	-334.7935791015626	1178.157348632813	-1211.697143554688	-315.0517883300782	1132.279541015625	-1211.462158203125	-363.6221618652344	1125.41796875	-1247.6845703125	-384.000213623047	1073.172729492188	-1263.049926757813	-442.9379272460939	1083.080444335938	-1231.12890625	-351.4364624023438	841.836120605469	-1214.439208984375	-379.1665649414063	871.5850219726565	-1156.774169921875	-354.4061889648438	820.4658813476565	-1123.662719726563	-267.4344787597657	1286.458129882813	-786.216735839844	-344.4299926757813	1192.094848632813	-668.9321899414064	-315.0910034179688	1152.53564453125	-664.8930664062501	-359.5645751953126	1135.675170898438	-629.5762329101564	-372.8690490722657	1068.390380859375	-605.2865600585939	-437.1054992675782	1057.240112304688	-645.7747802734376	-355.1376647949219	868.509704589844	-714.8226318359376	-318.6048278808594	845.244567871094	-664.5827026367189	-338.7487182617188	822.9536132812502	-753.1735229492189	-337.3636474609376	814.6704711914065	-1058.118286132813	-342.1525268554688	821.1404418945315	-798.8952636718752	-496.106414794922	960.466979980469	-938.6267700195315	-522.4904785156251	938.634704589844	-964.0996093750002	-519.1859741210939	941.9031372070315	-908.1221313476565	-420.1036682128907	716.3297119140626	-1154.617919921875	-364.1735534667969	654.5264892578126	-1161.241088867188	-323.6794738769532	673.8409423828126	-1147.279052734375	-371.5070190429688	596.2260131835939	-1161.814453125	-340.7822875976563	449.8566284179689	-1155.66015625	-307.9421386718751	410.606903076172	-1014.692504882813	-291.9680480957032	266.5893249511719	-1094.254516601563	-326.5166931152344	236.0559387207032	-1168.379516601563	-304.7137451171876	224.2485046386719	-1130.1279296875	-330.8114624023438	146.9205627441407	-1103.33544921875	-400.6725463867189	81.46606445312501	-1162.048950195313	-382.4124145507813	84.7070770263672	-1078.54443359375	-455.312957763672	56.34775161743165	-1127.570434570313	-267.6234130859376	55.56393814086915	-1092.665893554688	-253.5043487548829	56.74885177612306	-1140.5517578125	-292.7699279785157	34.73278427124024	-1189.8623046875	-448.8663024902345	649.2554931640626	-718.4042358398439	-391.7737121582032	616.6447143554689	-704.3778076171876	-363.3587341308594	632.9952392578126	-703.1191406250001	-378.3986206054688	534.6903076171876	-713.1763916015626	-318.1193542480469	441.3629760742189	-709.4935302734376	-282.0760803222657	436.4188842773439	-849.2534179687502	-283.1870422363282	283.3612670898438	-741.7769165039064	-366.7069702148438	223.8354644775391	-692.9284057617189	-325.7756652832032	213.5226287841797	-713.3347778320314	-326.2491760253907	162.3015594482422	-744.0527343750001	-420.3461303710939	81.36765289306642	-720.0320434570314	-383.8811340332032	84.40271759033205	-795.578796386719	-462.4864807128907	53.30006790161134	-759.0029907226564	-265.6495361328126	55.0932960510254	-762.4926757812501	-268.4772338867188	60.92738723754884	-711.7277221679689	-308.8906860351563	36.0354118347168	-668.5814208984376	nan	nan	nan	
